<mxfile host="app.diagrams.net" modified="2023-06-06T11:37:18.664Z" agent="Mozilla/5.0 (Windows NT 10.0; Win64; x64) AppleWebKit/537.36 (KHTML, like Gecko) Chrome/114.0.0.0 Safari/537.36" etag="bs6bUkvznTGW7JYV4OWS" version="21.3.5" type="github">
  <diagram name="Poprawność nawiasów" id="g024DsKpXOCPcxwgcf_j">
    <mxGraphModel dx="1434" dy="796" grid="1" gridSize="10" guides="1" tooltips="1" connect="1" arrows="1" fold="1" page="1" pageScale="1" pageWidth="827" pageHeight="1169" math="0" shadow="0">
      <root>
        <mxCell id="0" />
        <mxCell id="1" parent="0" />
        <mxCell id="ThZ5cBKQppWVgxTA8i1g-7" style="edgeStyle=orthogonalEdgeStyle;rounded=0;orthogonalLoop=1;jettySize=auto;html=1;entryX=0.5;entryY=0;entryDx=0;entryDy=0;" edge="1" parent="1" source="ThZ5cBKQppWVgxTA8i1g-1" target="ThZ5cBKQppWVgxTA8i1g-4">
          <mxGeometry relative="1" as="geometry" />
        </mxCell>
        <mxCell id="ThZ5cBKQppWVgxTA8i1g-1" value="START" style="ellipse;whiteSpace=wrap;html=1;" vertex="1" parent="1">
          <mxGeometry x="354" y="30" width="120" height="80" as="geometry" />
        </mxCell>
        <mxCell id="ThZ5cBKQppWVgxTA8i1g-9" style="edgeStyle=orthogonalEdgeStyle;rounded=0;orthogonalLoop=1;jettySize=auto;html=1;entryX=0.5;entryY=0;entryDx=0;entryDy=0;" edge="1" parent="1" source="ThZ5cBKQppWVgxTA8i1g-3" target="ThZ5cBKQppWVgxTA8i1g-6">
          <mxGeometry relative="1" as="geometry" />
        </mxCell>
        <mxCell id="ThZ5cBKQppWVgxTA8i1g-3" value="input: wprowadź ciąg znaków zawierający nawiasy" style="shape=parallelogram;perimeter=parallelogramPerimeter;whiteSpace=wrap;html=1;fixedSize=1;" vertex="1" parent="1">
          <mxGeometry x="316" y="220" width="196" height="60" as="geometry" />
        </mxCell>
        <mxCell id="ThZ5cBKQppWVgxTA8i1g-8" style="edgeStyle=orthogonalEdgeStyle;rounded=0;orthogonalLoop=1;jettySize=auto;html=1;entryX=0.5;entryY=0;entryDx=0;entryDy=0;" edge="1" parent="1" source="ThZ5cBKQppWVgxTA8i1g-4" target="ThZ5cBKQppWVgxTA8i1g-3">
          <mxGeometry relative="1" as="geometry" />
        </mxCell>
        <mxCell id="ThZ5cBKQppWVgxTA8i1g-4" value="Inicjalizuj pusty stos&lt;br&gt;stack = Stack()" style="rounded=0;whiteSpace=wrap;html=1;" vertex="1" parent="1">
          <mxGeometry x="354" y="130" width="120" height="60" as="geometry" />
        </mxCell>
        <mxCell id="ThZ5cBKQppWVgxTA8i1g-11" style="edgeStyle=orthogonalEdgeStyle;rounded=0;orthogonalLoop=1;jettySize=auto;html=1;entryX=0.5;entryY=0;entryDx=0;entryDy=0;" edge="1" parent="1" source="ThZ5cBKQppWVgxTA8i1g-6" target="ThZ5cBKQppWVgxTA8i1g-10">
          <mxGeometry relative="1" as="geometry" />
        </mxCell>
        <mxCell id="ThZ5cBKQppWVgxTA8i1g-6" value="error = false" style="rounded=0;whiteSpace=wrap;html=1;" vertex="1" parent="1">
          <mxGeometry x="354" y="310" width="120" height="60" as="geometry" />
        </mxCell>
        <mxCell id="ThZ5cBKQppWVgxTA8i1g-13" style="edgeStyle=orthogonalEdgeStyle;rounded=0;orthogonalLoop=1;jettySize=auto;html=1;entryX=0.5;entryY=0;entryDx=0;entryDy=0;" edge="1" parent="1" source="ThZ5cBKQppWVgxTA8i1g-10" target="ThZ5cBKQppWVgxTA8i1g-12">
          <mxGeometry relative="1" as="geometry" />
        </mxCell>
        <mxCell id="ThZ5cBKQppWVgxTA8i1g-10" value="i in range(len(str))" style="rounded=0;whiteSpace=wrap;html=1;" vertex="1" parent="1">
          <mxGeometry x="354" y="390" width="120" height="60" as="geometry" />
        </mxCell>
        <mxCell id="ThZ5cBKQppWVgxTA8i1g-12" value="if str[i] = &#39;(&#39;" style="rhombus;whiteSpace=wrap;html=1;" vertex="1" parent="1">
          <mxGeometry x="374" y="480" width="80" height="80" as="geometry" />
        </mxCell>
      </root>
    </mxGraphModel>
  </diagram>
</mxfile>
